<svg width="43" height="43" viewBox="0 0 43 43" fill="none" xmlns="http://www.w3.org/2000/svg">
<circle cx="21.5" cy="21.5" r="20" fill="black" stroke="white" stroke-width="3"/>
<g clip-path="url(#clip0_341_703)">
<path d="M30.164 13.6792C28.5703 12.9604 26.862 12.4292 25.0755 12.1271C25.0596 12.124 25.0431 12.126 25.0284 12.1327C25.0136 12.1394 25.0013 12.1506 24.9932 12.1646C24.7745 12.549 24.5307 13.05 24.3599 13.4458C22.4652 13.1628 20.5389 13.1628 18.6443 13.4458C18.454 13.0072 18.2394 12.5794 18.0015 12.1646C17.9935 12.1504 17.9813 12.139 17.9666 12.132C17.9519 12.1249 17.9354 12.1225 17.9193 12.125C16.1338 12.4271 14.4255 12.9583 12.8307 13.6781C12.817 13.6839 12.8054 13.6937 12.7974 13.7063C9.55571 18.4719 8.66717 23.1198 9.10363 27.7094C9.10484 27.7206 9.10833 27.7315 9.11388 27.7414C9.11943 27.7512 9.12693 27.7598 9.13592 27.7667C11.028 29.1442 13.1384 30.1936 15.3786 30.8708C15.3942 30.8757 15.4109 30.8756 15.4266 30.8708C15.4422 30.866 15.456 30.8566 15.4661 30.8438C15.9482 30.199 16.3754 29.5151 16.7432 28.799C16.7483 28.7892 16.7513 28.7784 16.7518 28.7674C16.7524 28.7564 16.7506 28.7453 16.7466 28.7351C16.7425 28.7248 16.7363 28.7155 16.7284 28.7078C16.7204 28.7002 16.7109 28.6943 16.7005 28.6906C16.0276 28.4372 15.3756 28.1314 14.7505 27.7761C14.7393 27.7696 14.7298 27.7605 14.723 27.7496C14.7161 27.7386 14.7121 27.7261 14.7113 27.7132C14.7104 27.7003 14.7128 27.6874 14.7182 27.6756C14.7236 27.6639 14.7318 27.6536 14.7422 27.6458C14.8734 27.549 15.0047 27.4479 15.1297 27.3469C15.1409 27.3378 15.1545 27.332 15.1688 27.3302C15.1832 27.3283 15.1977 27.3305 15.2109 27.3365C19.3015 29.174 23.7318 29.174 27.7745 27.3365C27.7877 27.3302 27.8024 27.3277 27.8169 27.3294C27.8315 27.331 27.8453 27.3367 27.8567 27.3458C27.9817 27.4479 28.112 27.549 28.2443 27.6458C28.2547 27.6535 28.263 27.6636 28.2686 27.6752C28.2742 27.6869 28.2768 27.6997 28.2761 27.7126C28.2755 27.7255 28.2717 27.7381 28.2651 27.7491C28.2584 27.7602 28.2491 27.7695 28.238 27.7761C27.6151 28.1344 26.9672 28.4375 26.287 28.6896C26.2765 28.6934 26.267 28.6994 26.259 28.7071C26.2511 28.7149 26.2449 28.7243 26.2408 28.7346C26.2368 28.745 26.235 28.7561 26.2356 28.7672C26.2362 28.7783 26.2391 28.7891 26.2443 28.799C26.6193 29.5146 27.0484 30.1958 27.5203 30.8427C27.5301 30.856 27.5438 30.8659 27.5594 30.8711C27.5751 30.8764 27.592 30.8766 27.6078 30.8719C29.8519 30.1965 31.9657 29.1467 33.8599 27.7667C33.8691 27.7602 33.8769 27.7519 33.8826 27.7422C33.8884 27.7325 33.892 27.7216 33.8932 27.7104C34.414 22.4042 33.0203 17.7938 30.1963 13.7083C30.1894 13.6951 30.178 13.6847 30.164 13.6792ZM17.3547 24.9146C16.1234 24.9146 15.1078 23.8011 15.1078 22.4354C15.1078 21.0688 16.1036 19.9563 17.3547 19.9563C18.6151 19.9563 19.6213 21.0781 19.6015 22.4354C19.6015 23.8021 18.6057 24.9146 17.3547 24.9146ZM25.662 24.9146C24.4297 24.9146 23.4151 23.8011 23.4151 22.4354C23.4151 21.0688 24.4099 19.9563 25.662 19.9563C26.9224 19.9563 27.9286 21.0781 27.9088 22.4354C27.9088 23.8021 26.9234 24.9146 25.662 24.9146Z" fill="white"/>
</g>
<defs>
<clipPath id="clip0_341_703">
<rect width="25" height="25" fill="white" transform="translate(9 9)"/>
</clipPath>
</defs>
</svg>
