<svg width="43" height="43" viewBox="0 0 43 43" fill="none" xmlns="http://www.w3.org/2000/svg">
<circle cx="21.5" cy="21.5" r="20" fill="black" stroke="white" stroke-width="3"/>
<path d="M21.498 17.985C19.5627 17.985 17.9833 19.5644 17.9833 21.4997C17.9833 23.4351 19.5627 25.0145 21.498 25.0145C23.4334 25.0145 25.0128 23.4351 25.0128 21.4997C25.0128 19.5644 23.4334 17.985 21.498 17.985ZM32.0397 21.4997C32.0397 20.0442 32.0528 18.602 31.9711 17.1491C31.8894 15.4616 31.5044 13.964 30.2704 12.73C29.0338 11.4934 27.5388 11.111 25.8513 11.0293C24.3958 10.9476 22.9535 10.9607 21.5007 10.9607C20.0452 10.9607 18.6029 10.9476 17.1501 11.0293C15.4626 11.111 13.9649 11.496 12.731 12.73C11.4943 13.9666 11.112 15.4616 11.0303 17.1491C10.9485 18.6046 10.9617 20.0469 10.9617 21.4997C10.9617 22.9525 10.9485 24.3975 11.0303 25.8503C11.112 27.5378 11.497 29.0354 12.731 30.2694C13.9676 31.5061 15.4626 31.8884 17.1501 31.9701C18.6056 32.0519 20.0479 32.0387 21.5007 32.0387C22.9562 32.0387 24.3984 32.0519 25.8513 31.9701C27.5388 31.8884 29.0364 31.5034 30.2704 30.2694C31.507 29.0328 31.8894 27.5378 31.9711 25.8503C32.0555 24.3975 32.0397 22.9552 32.0397 21.4997ZM21.498 26.9076C18.5054 26.9076 16.0901 24.4924 16.0901 21.4997C16.0901 18.507 18.5054 16.0918 21.498 16.0918C24.4907 16.0918 26.906 18.507 26.906 21.4997C26.906 24.4924 24.4907 26.9076 21.498 26.9076ZM27.1274 17.1333C26.4287 17.1333 25.8645 16.569 25.8645 15.8703C25.8645 15.1716 26.4287 14.6073 27.1274 14.6073C27.8262 14.6073 28.3904 15.1716 28.3904 15.8703C28.3906 16.0362 28.3581 16.2006 28.2947 16.3539C28.2313 16.5072 28.1383 16.6465 28.021 16.7638C27.9037 16.8812 27.7643 16.9742 27.611 17.0376C27.4577 17.101 27.2934 17.1335 27.1274 17.1333Z" fill="white"/>
</svg>
