<svg width="43" height="43" viewBox="0 0 43 43" fill="none" xmlns="http://www.w3.org/2000/svg">
<circle cx="21.5" cy="21.5" r="20" fill="black" stroke="white" stroke-width="3"/>
<path d="M34.1826 14.4502C33.2861 14.8369 32.3105 15.1152 31.3057 15.2236C32.349 14.6038 33.1302 13.6246 33.5029 12.4697C32.5239 13.0521 31.4514 13.4605 30.333 13.6768C29.8656 13.177 29.3002 12.7789 28.6722 12.5073C28.0441 12.2356 27.3669 12.0962 26.6826 12.0977C23.9141 12.0977 21.6875 14.3418 21.6875 17.0957C21.6875 17.4824 21.7344 17.8692 21.8105 18.2412C17.665 18.0244 13.9678 16.044 11.5098 13.0117C11.0619 13.7767 10.8272 14.6477 10.8301 15.5342C10.8301 17.2686 11.7119 18.7979 13.0566 19.6973C12.2642 19.6661 11.4903 19.4482 10.7979 19.0615V19.1231C10.7979 21.5518 12.5146 23.5645 14.8027 24.0274C14.3731 24.139 13.9312 24.196 13.4873 24.1973C13.1621 24.1973 12.8545 24.1651 12.5439 24.1211C13.1768 26.1016 15.0195 27.5401 17.2139 27.5869C15.4971 28.9317 13.3467 29.7227 11.0117 29.7227C10.5928 29.7227 10.2061 29.708 9.80469 29.6611C12.0195 31.082 14.6475 31.9024 17.4775 31.9024C26.665 31.9024 31.6924 24.291 31.6924 17.6846C31.6924 17.4678 31.6924 17.251 31.6777 17.0342C32.6504 16.3223 33.5029 15.4404 34.1826 14.4502Z" fill="white"/>
</svg>
