<svg width="43" height="43" viewBox="0 0 43 43" fill="none" xmlns="http://www.w3.org/2000/svg">
<circle cx="21.5" cy="21.5" r="20" fill="black" stroke="white" stroke-width="3"/>
<g clip-path="url(#clip0_341_706)">
<path d="M33.2463 15.6416C32.9715 14.6257 32.1791 13.8303 31.1632 13.5586C29.7987 13.0318 16.5821 12.7736 12.7481 13.5736C11.7323 13.8484 10.9368 14.6408 10.6651 15.6567C10.0493 18.3586 10.0025 24.2001 10.6802 26.9623C10.9549 27.9782 11.7474 28.7736 12.7632 29.0453C15.4651 29.6672 28.3104 29.7548 31.1783 29.0453C32.1942 28.7706 32.9897 27.9782 33.2614 26.9623C33.918 24.0189 33.9647 18.5397 33.2463 15.6416Z" fill="white"/>
<path d="M25.8538 21.3016L19.6953 17.7695V24.8337L25.8538 21.3016Z" fill="black"/>
</g>
<defs>
<clipPath id="clip0_341_706">
<rect width="24" height="16.6038" fill="white" transform="translate(10 13)"/>
</clipPath>
</defs>
</svg>
