<svg width="11" height="11" viewBox="0 0 11 11" fill="none" xmlns="http://www.w3.org/2000/svg">
<g clip-path="url(#clip0_408_6057)">
<path d="M9.12274 4.33447H5.23263C4.7552 4.33447 4.36816 4.72151 4.36816 5.19894V9.08904C4.36816 9.56648 4.7552 9.95351 5.23263 9.95351H9.12274C9.60017 9.95351 9.9872 9.56648 9.9872 9.08904V5.19894C9.9872 4.72151 9.60017 4.33447 9.12274 4.33447Z" stroke="black" stroke-width="0.864468" stroke-linecap="round" stroke-linejoin="round"/>
<path d="M2.63947 6.92763H2.20724C1.97797 6.92763 1.75809 6.83656 1.59597 6.67444C1.43385 6.51232 1.34277 6.29244 1.34277 6.06317V2.17306C1.34277 1.94379 1.43385 1.72391 1.59597 1.56179C1.75809 1.39967 1.97797 1.30859 2.20724 1.30859H6.09735C6.32662 1.30859 6.5465 1.39967 6.70862 1.56179C6.87073 1.72391 6.96181 1.94379 6.96181 2.17306V2.6053" stroke="black" stroke-width="0.864468" stroke-linecap="round" stroke-linejoin="round"/>
</g>
<defs>
<clipPath id="clip0_408_6057">
<rect width="10.3736" height="10.3736" fill="white" transform="translate(0.478516 0.444336)"/>
</clipPath>
</defs>
</svg>
