<svg width="21" height="20" viewBox="0 0 21 20" fill="none" xmlns="http://www.w3.org/2000/svg">
<path d="M16.9209 11.6182L18.0024 10.5367C18.2918 10.2473 18.2918 9.77815 18.0024 9.48878L16.9209 8.40728" stroke="black" stroke-opacity="0.5" stroke-width="1.11146" stroke-linecap="round" stroke-linejoin="round"/>
<path d="M17.7243 10.0126H11.3026M5.68354 16.4343C3.91022 16.4343 2.47266 14.9968 2.47266 13.2235V6.8017C2.47266 5.02838 3.91022 3.59082 5.68354 3.59082M5.68354 16.4343C7.45686 16.4343 8.89442 14.9968 8.89442 13.2235V6.8017C8.89442 5.02838 7.45686 3.59082 5.68354 3.59082M5.68354 16.4343H12.1053C13.8786 16.4343 15.3162 14.9968 15.3162 13.2235M5.68354 3.59082H12.1053C13.8786 3.59082 15.3162 5.02838 15.3162 6.8017" stroke="black" stroke-opacity="0.5" stroke-width="1.11146" stroke-linecap="round"/>
</svg>
