<svg width="72" height="68" viewBox="0 0 72 68" fill="none" xmlns="http://www.w3.org/2000/svg">
<path fill-rule="evenodd" clip-rule="evenodd" d="M52.6663 7.33464C57.6213 7.33464 61.7346 10.9384 62.5281 15.668H9.33301V10.668C9.33301 5.14512 13.8102 0.667969 19.333 0.667969H27.8969C30.1237 0.667969 32.2869 1.41124 34.0434 2.77997L37.1782 5.22264C38.9347 6.59136 41.0978 7.33464 43.3247 7.33464H52.6663ZM7.57937 20.668H64.4195C68.6638 20.668 71.8275 24.5814 70.9382 28.7315L64.9246 56.795C63.6073 62.9426 58.1744 67.3346 51.8872 67.3346H20.1117C13.8245 67.3346 8.39164 62.9426 7.0743 56.795L1.06069 28.7315C0.171383 24.5814 3.33507 20.668 7.57937 20.668Z" fill="black"/>
</svg>
