<svg width="52" height="45" viewBox="0 0 52 45" fill="none" xmlns="http://www.w3.org/2000/svg">
<path d="M30.4168 38.7408L30.417 38.7406C33.2098 36.6451 36.5971 33.9747 39.6912 31.1897C42.8222 28.3715 45.5036 25.5673 47.0151 23.2059L47.016 23.2045C49.1914 19.8112 49.8998 15.5973 48.9548 11.6935L48.9506 11.6762L48.9467 11.6589C47.0078 3.1195 36.1589 -0.4535 29.4122 5.31949L29.406 5.32481C29.0503 5.6272 28.7075 5.97499 28.2599 6.43268C28.0842 6.61249 27.8928 6.8081 27.6937 7.00583L25.9322 8.75493L24.1707 7.00583C23.9716 6.80819 23.7804 6.6126 23.6048 6.43303L30.4168 38.7408ZM30.4168 38.7408C29.6641 39.3056 28.1989 40.3489 26.8928 41.2708C26.5538 41.51 26.2282 41.7393 25.9322 41.9473M30.4168 38.7408L25.9322 41.9473M31.9174 40.7403C37.5681 36.5003 45.7225 29.8625 49.1207 24.5537L31.9174 40.7403ZM31.9174 40.7403C30.343 41.9219 25.9322 45 25.9322 45L31.9174 40.7403ZM25.9322 41.9473C25.6362 41.7393 25.3106 41.51 24.9716 41.2708C23.6655 40.3489 22.2003 39.3056 21.4476 38.7408L21.4474 38.7406C18.6546 36.6451 15.2673 33.9747 12.1731 31.1897C9.04216 28.3715 6.36079 25.5673 4.84934 23.206L4.84836 23.2044C2.67294 19.8112 1.96457 15.5973 2.90956 11.6935L2.91375 11.6762L2.91769 11.6589C4.85657 3.11949 15.7055 -0.453496 22.4521 5.3195L22.4584 5.3248C22.8141 5.6272 23.1569 5.97497 23.6045 6.43266L25.9322 41.9473Z" fill="white" stroke="black" stroke-width="5"/>
</svg>
