<svg width="74" height="74" viewBox="0 0 74 74" fill="none" xmlns="http://www.w3.org/2000/svg">
<path fill-rule="evenodd" clip-rule="evenodd" d="M27.9455 7C21.8791 7 17.0002 12.0897 17.0002 18.3247C17.0002 22.1153 18.805 25.482 21.5791 27.5372C20.1494 28.6084 18.9904 29.9996 18.1953 31.5994C17.4001 33.1993 16.9908 34.9631 17.0002 36.7496C17.0002 40.5427 18.805 43.9069 21.5791 45.9621C20.1494 47.0333 18.9904 48.4246 18.1953 50.0244C17.4001 51.6242 16.9908 53.3881 17.0002 55.1746C17.0002 61.4096 21.8791 66.4993 27.9455 66.4993C34.0095 66.4993 38.8909 61.4096 38.8909 55.1746V45.6001C40.8081 47.1987 43.2248 48.075 45.7209 48.0768C51.7874 48.0743 56.6663 42.9847 56.6663 36.7496C56.6763 34.963 56.2672 33.199 55.472 31.599C54.6768 29.9991 53.5176 28.608 52.0874 27.5372C53.5171 26.466 54.6761 25.0747 55.4712 23.4749C56.2664 21.8751 56.6757 20.1112 56.6663 18.3247C56.6663 12.0897 51.7874 7 45.7209 7H27.9455ZM21.113 18.3247C21.113 14.3804 24.1921 11.222 27.9455 11.222H34.7756V25.4274H27.9455C24.1921 25.4274 21.113 22.2665 21.113 18.3247ZM45.7209 25.4249H38.8909V11.2195H45.7209C49.4768 11.2195 52.5534 14.3804 52.5534 18.3247C52.5534 22.2665 49.4768 25.4249 45.7209 25.4249ZM21.1155 36.7496C21.1155 32.8078 24.1946 29.6469 27.948 29.6469H34.778V43.8523H27.9455C24.1897 43.8523 21.113 40.6915 21.113 36.7496H21.1155ZM38.8909 36.7496C38.8909 32.8078 41.97 29.6469 45.7234 29.6469C49.4793 29.6469 52.5559 32.8053 52.5559 36.7496C52.5559 40.6915 49.4793 43.8523 45.7234 43.8523C41.97 43.8523 38.8934 40.6939 38.8934 36.7496H38.8909ZM21.1155 55.1746C21.1155 51.2327 24.1946 48.0743 27.948 48.0743H34.778V55.1746C34.778 59.1189 31.7039 62.2773 27.948 62.2773C24.1946 62.2773 21.1155 59.1189 21.1155 55.1746Z" fill="black"/>
</svg>
