<svg width="24" height="23" viewBox="0 0 24 23" fill="none" xmlns="http://www.w3.org/2000/svg">
<path d="M20.0956 15.1578L19.5026 14.7947V14.7947L20.0956 15.1578ZM19.2106 16.603L19.8036 16.9661L19.2106 16.603ZM3.88293 8.25921L3.28995 7.8961H3.28995L3.88293 8.25921ZM4.76787 6.81403L5.36084 7.17713L4.76787 6.81403ZM7.18559 6.20322L7.51803 5.59253L7.51803 5.59253L7.18559 6.20322ZM4.53075 10.5388L4.19832 11.1495H4.19832L4.53075 10.5388ZM16.7929 17.2138L16.4605 17.8245H16.4605L16.7929 17.2138ZM19.4478 12.8782L19.1153 13.4889L19.4478 12.8782ZM4.76787 16.603L4.1749 16.9661H4.1749L4.76787 16.603ZM3.88292 15.1578L4.4759 14.7947H4.4759L3.88292 15.1578ZM19.2106 6.81404L19.8036 6.45094V6.45093L19.2106 6.81404ZM20.0956 8.25922L19.5026 8.62232V8.62232L20.0956 8.25922ZM19.4478 10.5388L19.7802 11.1495L19.4478 10.5388ZM16.7929 6.20323L17.1254 6.81393L17.1254 6.81393L16.7929 6.20323ZM4.53075 12.8782L4.86318 13.4889H4.86319L4.53075 12.8782ZM7.18559 17.2138L6.85316 16.6031L6.85315 16.6031L7.18559 17.2138ZM16.6989 6.25444L16.3664 5.64375V5.64375L16.6989 6.25444ZM7.27968 6.25444L6.94724 6.86513L6.94724 6.86513L7.27968 6.25444ZM16.6989 17.1625L17.0313 16.5519L17.0313 16.5519L16.6989 17.1625ZM7.27967 17.1626L7.61211 17.7733L7.61211 17.7733L7.27967 17.1626ZM11.1043 4.06006H12.8742V2.66943H11.1043V4.06006ZM12.8742 19.3569H11.1043V20.7476H12.8742V19.3569ZM11.1043 19.3569C10.4717 19.3569 10.0297 18.8831 10.0297 18.3835H8.63911C8.63911 19.7271 9.78193 20.7476 11.1043 20.7476V19.3569ZM13.9488 18.3835C13.9488 18.8831 13.5068 19.3569 12.8742 19.3569V20.7476C14.1966 20.7476 15.3394 19.7271 15.3394 18.3835H13.9488ZM12.8742 4.06006C13.5068 4.06006 13.9488 4.53386 13.9488 5.0335H15.3394C15.3394 3.68988 14.1966 2.66943 12.8742 2.66943V4.06006ZM11.1043 2.66943C9.78193 2.66943 8.63911 3.68988 8.63911 5.0335H10.0297C10.0297 4.53386 10.4717 4.06006 11.1043 4.06006V2.66943ZM19.5026 14.7947L18.6177 16.2399L19.8036 16.9661L20.6886 15.5209L19.5026 14.7947ZM4.4759 8.62231L5.36084 7.17713L4.1749 6.45092L3.28995 7.8961L4.4759 8.62231ZM5.36084 7.17713C5.64698 6.70985 6.31602 6.52152 6.85316 6.81391L7.51803 5.59253C6.36211 4.9633 4.86625 5.3219 4.1749 6.45092L5.36084 7.17713ZM4.86319 9.92807C4.34774 9.64748 4.20574 9.06349 4.4759 8.62231L3.28995 7.8961C2.58262 9.05122 3.02071 10.5084 4.19832 11.1495L4.86319 9.92807ZM18.6177 16.2399C18.3315 16.7071 17.6625 16.8955 17.1254 16.6031L16.4605 17.8245C17.6164 18.4537 19.1123 18.0951 19.8036 16.9661L18.6177 16.2399ZM20.6886 15.5209C21.3959 14.3658 20.9578 12.9086 19.7802 12.2675L19.1153 13.4889C19.6308 13.7695 19.7728 14.3535 19.5026 14.7947L20.6886 15.5209ZM5.36084 16.2399L4.4759 14.7947L3.28995 15.5209L4.1749 16.9661L5.36084 16.2399ZM18.6177 7.17714L19.5026 8.62232L20.6886 7.89612L19.8036 6.45094L18.6177 7.17714ZM19.5026 8.62232C19.7728 9.0635 19.6308 9.64749 19.1153 9.92808L19.7802 11.1495C20.9578 10.5084 21.3959 9.05123 20.6886 7.89611L19.5026 8.62232ZM17.1254 6.81393C17.6625 6.52153 18.3315 6.70986 18.6177 7.17714L19.8036 6.45093C19.1123 5.32191 17.6164 4.96331 16.4605 5.59254L17.1254 6.81393ZM4.4759 14.7947C4.20574 14.3535 4.34774 13.7695 4.86318 13.4889L4.19831 12.2675C3.02071 12.9086 2.58262 14.3658 3.28995 15.5209L4.4759 14.7947ZM4.1749 16.9661C4.86625 18.0951 6.36211 18.4537 7.51802 17.8245L6.85315 16.6031C6.31601 16.8955 5.64698 16.7071 5.36084 16.2399L4.1749 16.9661ZM17.0313 6.86514L17.1254 6.81393L16.4605 5.59254L16.3664 5.64375L17.0313 6.86514ZM6.85315 6.81391L6.94724 6.86513L7.61211 5.64374L7.51803 5.59253L6.85315 6.81391ZM17.1254 16.6031L17.0313 16.5519L16.3664 17.7732L16.4605 17.8245L17.1254 16.6031ZM6.94724 16.5519L6.85316 16.6031L7.51802 17.8245L7.61211 17.7733L6.94724 16.5519ZM4.19832 11.1495C4.64123 11.3906 4.64123 12.0264 4.19831 12.2675L4.86319 13.4889C6.27377 12.7211 6.27378 10.6959 4.86319 9.92807L4.19832 11.1495ZM7.61211 17.7733C8.0751 17.5212 8.63911 17.8564 8.63911 18.3835H10.0297C10.0297 16.8013 8.33687 15.7954 6.94724 16.5519L7.61211 17.7733ZM15.3394 18.3835C15.3394 17.8564 15.9034 17.5212 16.3664 17.7732L17.0313 16.5519C15.6416 15.7954 13.9488 16.8013 13.9488 18.3835H15.3394ZM19.7802 12.2675C19.3373 12.0264 19.3373 11.3906 19.7802 11.1495L19.1153 9.92808C17.7048 10.6959 17.7048 12.7211 19.1153 13.4889L19.7802 12.2675ZM6.94724 6.86513C8.33687 7.62159 10.0297 6.61568 10.0297 5.0335H8.63911C8.63911 5.56063 8.0751 5.89577 7.61211 5.64374L6.94724 6.86513ZM16.3664 5.64375C15.9034 5.89578 15.3394 5.56064 15.3394 5.0335H13.9488C13.9488 6.61569 15.6416 7.6216 17.0313 6.86514L16.3664 5.64375ZM14.0752 11.7085C14.0752 12.8605 13.1413 13.7944 11.9893 13.7944V15.1851C13.9093 15.1851 15.4658 13.6285 15.4658 11.7085H14.0752ZM11.9893 13.7944C10.8372 13.7944 9.90333 12.8605 9.90333 11.7085H8.5127C8.5127 13.6285 10.0692 15.1851 11.9893 15.1851V13.7944ZM9.90333 11.7085C9.90333 10.5565 10.8372 9.62256 11.9893 9.62256V8.23193C10.0692 8.23193 8.5127 9.78844 8.5127 11.7085H9.90333ZM11.9893 9.62256C13.1413 9.62256 14.0752 10.5565 14.0752 11.7085H15.4658C15.4658 9.78844 13.9093 8.23193 11.9893 8.23193V9.62256Z" fill="black"/>
</svg>
