<svg width="33" height="32" viewBox="0 0 33 32" fill="none" xmlns="http://www.w3.org/2000/svg">
<path d="M16.5003 15.9993H15.4066C15.4066 16.4701 15.7078 16.8881 16.1545 17.037L16.5003 15.9993ZM17.5941 8.70768C17.5941 8.10362 17.1044 7.61393 16.5003 7.61393C15.8963 7.61393 15.4066 8.10362 15.4066 8.70768H17.5941ZM20.5295 18.4953C21.1025 18.6863 21.7219 18.3766 21.9129 17.8036C22.104 17.2305 21.7943 16.6111 21.2212 16.4201L20.5295 18.4953ZM17.5941 15.9993V8.70768H15.4066V15.9993H17.5941ZM16.1545 17.037L20.5295 18.4953L21.2212 16.4201L16.8462 14.9617L16.1545 17.037ZM29.9899 15.9993C29.9899 23.4494 23.9504 29.4889 16.5003 29.4889V31.6764C25.1585 31.6764 32.1774 24.6576 32.1774 15.9993H29.9899ZM16.5003 29.4889C9.05023 29.4889 3.01074 23.4494 3.01074 15.9993H0.823242C0.823242 24.6576 7.84211 31.6764 16.5003 31.6764V29.4889ZM3.01074 15.9993C3.01074 8.54926 9.05023 2.50977 16.5003 2.50977V0.322266C7.84211 0.322266 0.823242 7.34114 0.823242 15.9993H3.01074ZM16.5003 2.50977C23.9504 2.50977 29.9899 8.54926 29.9899 15.9993H32.1774C32.1774 7.34114 25.1585 0.322266 16.5003 0.322266V2.50977Z" fill="#28303F"/>
</svg>
