<svg width="72" height="72" viewBox="0 0 72 72" fill="none" xmlns="http://www.w3.org/2000/svg">
<g clip-path="url(#clip0_271_702)">
<path d="M29.3781 10.9288V15.5226C32.7972 15.5158 36.1838 16.1859 39.3428 17.4941C42.5017 18.8024 45.3705 20.723 47.7837 23.1452C50.2042 25.5596 52.1237 28.4286 53.4319 31.5872C54.74 34.7459 55.411 38.132 55.4062 41.5508H60C60 24.6366 46.2892 10.9258 29.375 10.9258L29.3781 10.9288Z" fill="black"/>
<path d="M29.375 20.1162V24.71C33.8738 24.71 38.1031 26.4617 41.2851 29.6436C44.467 32.8256 46.2188 37.0549 46.2188 41.5537H50.8125C50.8125 35.8681 48.5539 30.4154 44.5336 26.3951C40.5133 22.3748 35.0606 20.1162 29.375 20.1162ZM33.9688 29.3037L30.9062 32.3662L20.1875 35.4287L11 55.335L12.2127 56.5477L23.3541 45.4063C23.1796 44.7551 23.2248 44.0645 23.4827 43.4417C23.7407 42.8188 24.197 42.2984 24.7808 41.9613C25.3647 41.6242 26.0435 41.4892 26.7119 41.5771C27.3803 41.6651 28.001 41.9712 28.4777 42.4479C28.9544 42.9247 29.2605 43.5454 29.3485 44.2138C29.4365 44.8822 29.3015 45.561 28.9643 46.1448C28.6272 46.7287 28.1069 47.1849 27.484 47.4429C26.8611 47.7009 26.1705 47.7461 25.5193 47.5715L14.3779 58.7129L15.5907 59.9256L35.4969 50.7381L38.5594 40.0194L41.6219 36.9569L33.9657 29.3006L33.9688 29.3037Z" fill="black"/>
</g>
<defs>
<clipPath id="clip0_271_702">
<rect width="49" height="49" fill="white" transform="translate(11 10.9287)"/>
</clipPath>
</defs>
</svg>
