<svg width="54" height="54" viewBox="0 0 54 54" fill="none" xmlns="http://www.w3.org/2000/svg">
<path d="M19.125 20.25C15.2462 20.25 11.5263 21.7908 8.78356 24.5336C6.04084 27.2763 4.5 30.9962 4.5 34.875C4.5 36.7956 4.87829 38.6974 5.61326 40.4717C6.34824 42.2461 7.42551 43.8584 8.78356 45.2164C11.5263 47.9592 15.2462 49.5 19.125 49.5C21.0456 49.5 22.9474 49.1217 24.7217 48.3867C26.4961 47.6518 28.1084 46.5745 29.4664 45.2164C30.8245 43.8584 31.9018 42.2461 32.6367 40.4717C33.3717 38.6974 33.75 36.7956 33.75 34.875V31.2975L49.5 27V20.25H24.75V24.75H20.25V20.25H19.125ZM24.75 4.5V15.75H20.25V4.5H24.75ZM14.2875 16.38C12.78 16.74 11.34 17.28 9.9675 18L4.815 10.98L8.46 8.325L14.2875 16.38ZM40.185 10.98L36.72 15.75H31.1625L36.54 8.325L40.185 10.98Z" fill="black"/>
</svg>
