<svg width="57" height="51" viewBox="0 0 57 51" fill="none" xmlns="http://www.w3.org/2000/svg">
<g clip-path="url(#clip0_269_584)">
<path d="M39.5833 9.5V9.56927C39.0589 9.52969 38.5344 9.5 38 9.5H25.3333C23.7005 9.5 22.1172 9.70781 20.6031 10.0938C20.5932 9.89583 20.5833 9.69792 20.5833 9.5C20.5833 4.25521 24.8385 0 30.0833 0C35.3281 0 39.5833 4.25521 39.5833 9.5ZM38 12.6667C38.3464 12.6667 38.6927 12.6766 39.0292 12.6964C39.4448 12.726 39.8604 12.7656 40.276 12.825C42.0177 10.7964 44.6104 9.5 47.5 9.5H50.6667L48.8063 16.9318C50.3698 18.3964 51.6464 20.1776 52.5172 22.1667H53.8333C55.5849 22.1667 57 23.5818 57 25.3333V34.8333C57 36.5849 55.5849 38 53.8333 38H50.6667C49.7661 39.1974 48.6974 40.2661 47.5 41.1667V47.5C47.5 49.2516 46.0849 50.6667 44.3333 50.6667H41.1667C39.4151 50.6667 38 49.2516 38 47.5V44.3333H25.3333V47.5C25.3333 49.2516 23.9182 50.6667 22.1667 50.6667H19C17.2484 50.6667 15.8333 49.2516 15.8333 47.5V41.1667C12.3797 38.574 10.0245 34.6057 9.57917 30.0833H6.72917C3.00833 30.0833 0 27.075 0 23.3542C0 19.6333 3.00833 16.625 6.72917 16.625H7.125C8.44115 16.625 9.5 17.6839 9.5 19C9.5 20.3161 8.44115 21.375 7.125 21.375H6.72917C5.64062 21.375 4.75 22.2656 4.75 23.3542C4.75 24.4427 5.64062 25.3333 6.72917 25.3333H9.81667C11.0141 19.4156 15.5266 14.6953 21.3255 13.1812C22.6021 12.8448 23.9479 12.6667 25.3333 12.6667H38ZM44.3333 26.125C44.3333 24.8089 43.2745 23.75 41.9583 23.75C40.6422 23.75 39.5833 24.8089 39.5833 26.125C39.5833 27.4411 40.6422 28.5 41.9583 28.5C43.2745 28.5 44.3333 27.4411 44.3333 26.125Z" fill="black"/>
</g>
<defs>
<clipPath id="clip0_269_584">
<rect width="57" height="50.6667" fill="white"/>
</clipPath>
</defs>
</svg>
