<svg width="52" height="52" viewBox="0 0 52 52" fill="none" xmlns="http://www.w3.org/2000/svg">
<g clip-path="url(#clip0_271_589)">
<path d="M47.0446 22.7067L42.2057 21.2622C41.8712 20.0941 41.4111 18.9657 40.8335 17.8967L43.2024 13.4622C43.2913 13.2949 43.3238 13.1033 43.2952 12.9159C43.2666 12.7286 43.1783 12.5554 43.0435 12.4222L39.5913 8.95557C39.4581 8.82076 39.285 8.73249 39.0976 8.70387C38.9103 8.67525 38.7187 8.7078 38.5513 8.79668L34.1457 11.1511C33.0662 10.5454 31.9229 10.061 30.7368 9.70668L29.2924 4.92557C29.2313 4.74937 29.1159 4.59711 28.9627 4.49068C28.8096 4.38426 28.6266 4.32917 28.4402 4.33335H23.5579C23.3704 4.33422 23.188 4.39493 23.0373 4.50665C22.8866 4.61836 22.7755 4.77524 22.7202 4.95446L21.2757 9.72113C20.0797 10.0735 18.9267 10.558 17.838 11.1656L13.5046 8.82557C13.3372 8.73669 13.1456 8.70414 12.9583 8.73276C12.771 8.76138 12.5978 8.84965 12.4646 8.98446L8.95462 12.4078C8.81981 12.541 8.73154 12.7141 8.70292 12.9015C8.67429 13.0888 8.70684 13.2804 8.79573 13.4478L11.1357 17.7811C10.5291 18.8653 10.0447 20.0135 9.69128 21.2045L4.91017 22.6489C4.73095 22.7043 4.57407 22.8154 4.46236 22.966C4.35065 23.1167 4.28994 23.2991 4.28906 23.4867V28.3689C4.28994 28.5565 4.35065 28.7389 4.46236 28.8896C4.57407 29.0402 4.73095 29.1513 4.91017 29.2067L9.72017 30.6511C10.0775 31.8223 10.5618 32.9509 11.1646 34.0167L8.79573 38.5522C8.70684 38.7196 8.67429 38.9112 8.70292 39.0986C8.73154 39.2859 8.81981 39.459 8.95462 39.5922L12.4068 43.0445C12.54 43.1793 12.7132 43.2675 12.9005 43.2962C13.0879 43.3248 13.2795 43.2922 13.4468 43.2034L17.9102 40.82C18.966 41.3897 20.0798 41.8449 21.2324 42.1778L22.6768 47.0456C22.7322 47.2248 22.8433 47.3817 22.994 47.4934C23.1446 47.6051 23.327 47.6658 23.5146 47.6667H28.3968C28.5844 47.6658 28.7668 47.6051 28.9175 47.4934C29.0682 47.3817 29.1793 47.2248 29.2346 47.0456L30.6791 42.1633C31.8219 41.8288 32.9258 41.3736 33.9724 40.8056L38.4646 43.2034C38.632 43.2922 38.8236 43.3248 39.0109 43.2962C39.1983 43.2675 39.3714 43.1793 39.5046 43.0445L42.9568 39.5922C43.0917 39.459 43.1799 39.2859 43.2085 39.0986C43.2372 38.9112 43.2046 38.7196 43.1157 38.5522L40.718 34.0745C41.2919 33.0239 41.7519 31.915 42.0902 30.7667L46.958 29.3222C47.1372 29.2669 47.2941 29.1558 47.4058 29.0051C47.5175 28.8544 47.5782 28.672 47.5791 28.4845V23.5589C47.5876 23.3793 47.5409 23.2014 47.4454 23.049C47.3499 22.8967 47.21 22.7772 47.0446 22.7067ZM25.9991 33.9445C24.4278 33.9445 22.8918 33.4785 21.5854 32.6056C20.2789 31.7326 19.2606 30.4919 18.6594 29.0402C18.0581 27.5886 17.9007 25.9912 18.2073 24.4501C18.5138 22.9091 19.2704 21.4935 20.3815 20.3824C21.4925 19.2714 22.9081 18.5148 24.4492 18.2082C25.9902 17.9017 27.5876 18.059 29.0393 18.6603C30.4909 19.2616 31.7317 20.2799 32.6046 21.5863C33.4776 22.8928 33.9435 24.4288 33.9435 26C33.9435 28.107 33.1065 30.1277 31.6166 31.6176C30.1268 33.1075 28.1061 33.9445 25.9991 33.9445Z" fill="black"/>
</g>
<defs>
<clipPath id="clip0_271_589">
<rect width="52" height="52" fill="white"/>
</clipPath>
</defs>
</svg>
