<svg width="58" height="58" viewBox="0 0 58 58" fill="none" xmlns="http://www.w3.org/2000/svg">
<circle cx="29" cy="29" r="29" fill="black"/>
<path d="M37.9907 34.847C37.9907 29.9529 34.6024 28.6729 29.7083 27.1293C26.8471 26.2258 25.1906 25.4728 25.1906 23.7034C25.1906 22.0469 26.5836 21.0681 28.7671 21.0681C30.4989 21.0681 32.7201 21.7458 34.753 23.214L37.3131 20.0516C35.5813 18.6587 33.0966 17.5293 30.6871 17.0775V12.221H27.3742V16.9646C22.9694 17.4163 20.4471 20.2399 20.4471 24.0046C20.4471 28.6729 24.2494 30.0658 28.4283 31.3458C31.666 32.3623 33.2095 33.1529 33.2095 35.1858C33.2095 36.9553 31.666 38.047 29.4448 38.047C27.2612 38.047 24.6636 37.1059 22.5553 35.0729L19.8824 38.2729C22.0659 40.4188 24.6636 41.6235 27.3742 42V46.593H30.6871V42.0753C35.2048 41.6235 37.9907 38.8753 37.9907 34.847Z" fill="white"/>
</svg>
