<svg width="62" height="40" viewBox="0 0 62 40" fill="none" xmlns="http://www.w3.org/2000/svg">
<path d="M1.64383 21.3836C3.33616 15.4121 5.91407 10.6018 6.99149 8.94313C9.17674 4.65299 14.6416 -2.88159 19.0189 1.3012C23.3963 5.48398 28.8186 6.45508 31.1279 6.45508V26.6086C26.318 26.6086 21.4243 27.3551 16.9458 31.7092C12.4672 36.0634 11.2225 40.0443 5.87306 39.9199C0.52366 39.7955 -0.471578 28.8479 1.64383 21.3836Z" fill="black"/>
<path d="M60.3562 21.3836C58.6638 15.4121 56.0859 10.6018 55.0085 8.94313C52.8233 4.65299 47.3584 -2.88159 42.9811 1.3012C38.6037 5.48398 33.0885 6.45508 30.8721 6.45508V26.6086C35.671 26.6086 40.5757 27.3551 45.0542 31.7092C49.5328 36.0634 50.7775 40.0443 56.1269 39.9199C61.4763 39.7955 62.4716 28.8479 60.3562 21.3836Z" fill="black"/>
<rect x="14.1328" y="9.9707" width="3.46859" height="12.3723" fill="white"/>
<rect x="22.0547" y="14.4229" width="3.46859" height="12.3723" transform="rotate(90 22.0547 14.4229)" fill="white"/>
<circle cx="46.5547" cy="10.2998" r="2.25" fill="white"/>
<circle cx="46.5547" cy="20.7998" r="2.25" fill="white"/>
<circle cx="41.3047" cy="15.207" r="2.25" fill="white"/>
<circle cx="51.8047" cy="15.207" r="2.25" fill="white"/>
</svg>
