<svg width="72" height="72" viewBox="0 0 72 72" fill="none" xmlns="http://www.w3.org/2000/svg">
<path d="M49.7917 15.012H23.25C20.7878 15.012 17.125 16.6433 17.125 21.137V49.7203C17.125 54.214 20.7878 55.8453 23.25 55.8453H53.875V51.762H23.2745C22.3313 51.7375 21.2083 51.3659 21.2083 49.7203C21.2083 49.5141 21.2267 49.3303 21.2573 49.1629C21.486 47.9869 22.4497 47.699 23.2745 47.6786H53.875V19.0953C53.875 18.0123 53.4448 16.9737 52.679 16.2079C51.9132 15.4422 50.8746 15.012 49.7917 15.012ZM49.7917 33.387L45.7083 31.3453L41.625 33.387V19.0953H49.7917V33.387Z" fill="black"/>
</svg>
