<svg width="71" height="54" viewBox="0 0 71 54" fill="none" xmlns="http://www.w3.org/2000/svg">
<path d="M1.04688 52.8049L14.2524 39.9998L21.2524 47.4998L28.2524 39.9998" stroke="black" stroke-width="3"/>
<path d="M61.8594 4.88733L64.8594 7.38733L67.3594 9.88733L68.8594 2.88733L61.8594 4.88733Z" fill="black"/>
<path d="M40.8594 19.3873L48.3594 24L49.8745 22.3722L64.8594 7.38733M64.8594 7.38733L61.8594 4.88733L68.8594 2.88733L67.3594 9.88733L64.8594 7.38733Z" stroke="black" stroke-width="3"/>
<circle cx="40" cy="30.9998" r="19" fill="black"/>
<path fill-rule="evenodd" clip-rule="evenodd" d="M47 23.7498V26.7498H41.5V29.7498H42.5C44.9853 29.7498 47 31.7645 47 34.2498C47 36.735 44.9853 38.7498 42.5 38.7498H41.5V42.2498H38.5V38.7498H34.5C33.6716 38.7498 33 38.0782 33 37.2498C33 36.4213 33.6716 35.7498 34.5 35.7498H38.5V32.7498H37.5C35.0147 32.7498 33 30.735 33 28.2498C33 25.7645 35.0147 23.7498 37.5 23.7498H38.5V19.7498H42V23.7498H47ZM37.2812 26.7498H38.6752V29.7498H37.2812C36.4528 29.7498 35.7812 29.0782 35.7812 28.2498C35.7812 27.4213 36.4528 26.7498 37.2812 26.7498ZM42.3774 33.133V35.7476H43.3774C43.9297 35.7476 44.7556 35.2855 44.7556 34.4467C44.7556 33.6079 43.9297 33.133 43.3774 33.133H42.3774Z" fill="white"/>
</svg>
