<svg width="288" height="220" viewBox="0 0 288 220" fill="none" xmlns="http://www.w3.org/2000/svg">
<path d="M243.781 18.4607C225.12 9.8956 205.426 3.78823 185.193 0.291594C185.008 0.256485 184.818 0.280548 184.648 0.360321C184.479 0.440094 184.339 0.57149 184.248 0.735708C181.562 5.60537 179.122 10.6075 176.94 15.723C155.131 12.4109 132.948 12.4109 111.139 15.723C108.947 10.5948 106.473 5.59142 103.729 0.735708C103.635 0.574928 103.495 0.446427 103.326 0.367149C103.158 0.28787 102.969 0.261529 102.785 0.291594C82.5577 3.78263 62.8704 9.89025 44.2189 18.4607C44.0582 18.5282 43.9226 18.6442 43.831 18.7924C6.52019 74.5421 -3.69994 128.92 1.31456 182.612C1.32888 182.744 1.36961 182.872 1.43432 182.988C1.49903 183.104 1.58639 183.206 1.69121 183.287C23.4179 199.381 47.7213 211.667 73.5638 219.62C73.7462 219.674 73.9408 219.672 74.1217 219.612C74.3026 219.553 74.461 219.44 74.5757 219.288C80.1246 211.734 85.0414 203.735 89.2763 195.374C89.3341 195.259 89.3669 195.133 89.3727 195.005C89.3785 194.876 89.357 194.748 89.3098 194.629C89.2625 194.509 89.1905 194.401 89.0985 194.312C89.0065 194.222 88.8966 194.153 88.776 194.109C81.0214 191.147 73.5136 187.575 66.3232 183.428C66.1926 183.351 66.083 183.243 66.0041 183.114C65.925 182.985 65.8791 182.838 65.8702 182.687C65.8613 182.536 65.8898 182.385 65.9531 182.247C66.0164 182.11 66.1126 181.99 66.2332 181.898C67.7398 180.774 69.252 179.594 70.6912 178.402C70.8189 178.297 70.9734 178.23 71.1373 178.208C71.3012 178.186 71.4679 178.21 71.6187 178.278C118.722 199.787 169.722 199.787 216.269 178.278C216.421 178.205 216.59 178.177 216.758 178.197C216.925 178.217 217.083 178.284 217.213 178.391C218.653 179.577 220.165 180.769 221.711 181.898C221.832 181.989 221.929 182.108 221.993 182.245C222.057 182.382 222.087 182.533 222.079 182.684C222.071 182.835 222.026 182.982 221.948 183.112C221.871 183.241 221.762 183.35 221.632 183.428C214.451 187.615 206.929 191.188 199.146 194.109C199.024 194.154 198.914 194.225 198.822 194.317C198.73 194.408 198.659 194.518 198.612 194.639C198.566 194.761 198.546 194.89 198.554 195.02C198.561 195.149 198.596 195.275 198.656 195.39C202.962 203.707 207.872 211.696 213.346 219.294C213.457 219.45 213.614 219.567 213.796 219.629C213.978 219.691 214.174 219.693 214.358 219.637C240.235 211.707 264.57 199.42 286.315 183.304C286.421 183.227 286.51 183.127 286.575 183.013C286.64 182.899 286.679 182.772 286.691 182.641C292.695 120.555 276.64 66.6213 244.135 18.8149C244.063 18.6588 243.937 18.5334 243.781 18.4607ZM96.3033 149.923C82.1199 149.923 70.4438 136.903 70.4438 120.915C70.4438 104.927 81.9007 91.9074 96.3033 91.9074C110.824 91.9074 122.399 105.04 122.163 120.915C122.174 136.903 110.712 149.923 96.3033 149.923ZM191.944 149.923C177.761 149.923 166.085 136.903 166.085 120.915C166.085 104.927 177.542 91.9074 191.944 91.9074C206.465 91.9074 218.04 105.04 217.804 120.915C217.809 136.903 206.465 149.923 191.944 149.923Z" fill="black"/>
</svg>
