<svg width="84" height="57" viewBox="0 0 84 57" fill="none" xmlns="http://www.w3.org/2000/svg">
<g clip-path="url(#clip0_711_127)">
<path d="M20.1005 9.53743L41.5783 0.343689C42.0814 0.128344 42.6509 0.129471 43.1531 0.346804L64.3852 9.53489C65.1141 9.85032 65.5877 10.5675 65.5782 11.3616C65.4241 24.1492 62.8435 42.5959 46.1892 53.9148C44.9906 54.5171 41.5626 52.6081 40.2112 53.1052H38.757C38.4412 53.3222 38.2017 53.5688 37.3883 53.1052C21.0471 42.2048 19.0093 25.0349 18.8978 11.3684C18.8913 10.5714 19.3678 9.85109 20.1005 9.53743Z" fill="white"/>
<path d="M40.2112 53.1052C38.4184 52.3378 38.9177 53.9769 37.3883 53.1052M40.2112 53.1052H37.3883M40.2112 53.1052C41.5626 52.6081 44.9906 54.5171 46.1892 53.9148C62.8435 42.5959 65.4241 24.1492 65.5782 11.3616C65.5877 10.5675 65.1141 9.85031 64.3852 9.53489L43.1531 0.346804C42.6509 0.129471 42.0814 0.128344 41.5783 0.343689L20.1005 9.53743C19.3678 9.85109 18.8913 10.5714 18.8978 11.3684C19.0093 25.0349 21.0471 42.2048 37.3883 53.1052" stroke="black" stroke-width="1.40659"/>
<path d="M83.8086 54.1777C83.2877 54.2242 73.3308 55.5919 68.4175 56.2699L67.8847 46.0414L82.6839 43.9492L78.7177 49.819L83.8086 54.1777Z" fill="white"/>
<path d="M0.819336 54.1777C1.34027 54.2242 11.2971 55.5919 16.2105 56.2699L16.7432 46.0414L1.94407 43.9492L5.91025 49.819L0.819336 54.1777Z" fill="white"/>
<path d="M8.02344 51.5625L9.12765 41.0435C27.0275 43.1938 33.5947 43.5425 42.6608 43.5425C51.727 43.5425 69.4525 42.5545 75.671 41.0435L76.7752 51.9112C73.2882 52.8411 54.749 54.2359 42.6608 54.2359C35.7798 54.2359 16.9152 53.4804 8.02344 51.5625Z" fill="white" stroke="black" stroke-width="1.0461"/>
<path fill-rule="evenodd" clip-rule="evenodd" d="M44.2492 17.9988C46.5358 18.2239 48.3291 18.924 48.5297 21.006C48.6648 22.5249 48.0241 23.4277 46.9657 23.9374C48.6751 24.3632 49.713 25.3704 49.498 27.5915C49.238 30.3797 47.152 31.1023 44.1755 31.2559V34.1341H42.4191V31.2559C42.2267 31.2559 42.0261 31.2559 41.8213 31.2559C41.545 31.2559 41.2625 31.2559 40.9759 31.2559V34.1341H39.2215V31.2559L35.7128 31.1924L36.0014 29.0961C36.0014 29.0961 37.3279 29.1269 37.3034 29.1105C37.4678 29.1202 37.6295 29.0656 37.7544 28.9583C37.8794 28.8509 37.9576 28.6992 37.9728 28.5352V23.921L37.9851 20.6354C37.9318 20.2936 37.6985 19.8841 36.9799 19.8698C37.0209 19.835 35.6943 19.8698 35.6943 19.8698V17.9414H39.2932V15.1226H41.1069V17.9414C41.457 17.9414 41.8029 17.9414 42.1509 17.9414H42.4969V15.1226H44.2615L44.2492 17.9988ZM40.8838 23.3028H40.9718C42.0404 23.3499 45.2052 23.4871 45.2093 21.5689C45.2093 19.747 42.5112 19.8064 41.2584 19.833H40.8838V23.3028ZM41.0312 28.9549H40.8756V25.4953H41.285C42.7651 25.4769 46.0691 25.4359 46.0527 27.2722C46.0732 29.1617 42.3454 29.0102 41.0352 28.9549H41.0312Z" fill="black"/>
<g clip-path="url(#clip1_711_127)">
<path d="M42.3024 5.38281L43.0695 6.91709L44.6038 7.10887L43.5503 8.29026L43.8367 9.98563L42.3024 9.2185L40.7681 9.98563L41.0571 8.29026L40.001 7.10887L41.5353 6.91709L42.3024 5.38281Z" fill="black"/>
</g>
<g clip-path="url(#clip2_711_127)">
<path d="M42.3226 39.2534L42.8491 40.3064L43.9021 40.438L43.179 41.2488L43.3756 42.4123L42.3226 41.8858L41.2696 42.4123L41.468 41.2488L40.7432 40.438L41.7961 40.3064L42.3226 39.2534Z" fill="black"/>
</g>
<g clip-path="url(#clip3_711_127)">
<path d="M49.5119 7.56173L49.6372 8.76881L50.6051 9.27841L49.613 9.79781L49.3798 10.9917L48.5554 10.1012L47.3483 10.2264L47.9624 9.17605L47.5578 8.13053L48.6214 8.38619L49.5119 7.56173Z" fill="black"/>
</g>
<g clip-path="url(#clip4_711_127)">
<path d="M35.0916 7.56173L34.9663 8.76881L33.9984 9.27841L34.9905 9.79781L35.2237 10.9917L36.0481 10.1012L37.2552 10.2264L36.6411 9.17605L37.0457 8.13053L35.9821 8.38619L35.0916 7.56173Z" fill="black"/>
</g>
<g clip-path="url(#clip5_711_127)">
<path d="M54.028 11.0455L54.5571 11.7995L55.3872 11.7797L54.9213 12.4907L55.2079 13.3684L54.3322 13.0826L53.5782 13.6118L53.5972 12.6884L52.9426 12.1448L53.7422 11.9212L54.028 11.0455Z" fill="black"/>
</g>
<g clip-path="url(#clip6_711_127)">
<path d="M30.5814 11.0455L30.0523 11.7995L29.2222 11.7797L29.688 12.4907L29.4015 13.3684L30.2772 13.0826L31.0312 13.6118L31.0122 12.6884L31.6668 12.1448L30.8671 11.9212L30.5814 11.0455Z" fill="black"/>
</g>
<path d="M47.2688 41.3791C46.2721 41.386 45.1848 40.6044 44.7657 40.2128C45.7248 39.6313 46.2328 39.404 47.3436 39.6385C48.4545 39.8731 48.8674 40.4098 49.2873 40.7808C49.0298 40.9773 48.2655 41.3721 47.2688 41.3791Z" fill="black"/>
<path d="M46.5505 39.0964C47.2156 38.354 47.3497 37.0216 47.3336 36.4482C46.2628 36.7821 45.7562 37.0123 45.1965 38.0001C44.6369 38.988 44.7658 39.6527 44.7657 40.2131C45.0835 40.1502 45.8854 39.8388 46.5505 39.0964Z" fill="black"/>
<path d="M50.2239 40.0009C49.3138 40.1915 48.1724 39.6638 47.7154 39.3761C48.483 38.657 48.9047 38.3513 49.9647 38.3648C51.0246 38.3783 51.5032 38.8023 51.957 39.0705C51.7585 39.3012 51.134 39.8103 50.2239 40.0009Z" fill="black"/>
<path d="M49.1373 38.0059C49.6057 37.1912 49.4776 35.9245 49.3549 35.393C48.4386 35.9019 48.0187 36.2101 47.6929 37.2342C47.3671 38.2583 47.6101 38.8541 47.7155 39.3764C47.9943 39.2591 48.6689 38.8207 49.1373 38.0059Z" fill="black"/>
<path d="M52.4737 38.3415C51.6838 38.6387 50.5866 38.3238 50.1367 38.1291C50.7255 37.3775 51.0614 37.0447 52.0141 36.9097C52.9668 36.7747 53.455 37.0887 53.8993 37.2663C53.7533 37.5008 53.2637 38.0442 52.4737 38.3415Z" fill="black"/>
<path d="M51.2221 36.7026C51.5292 35.9067 51.2385 34.7882 51.0547 34.3284C50.3033 34.9122 49.9694 35.2469 49.8192 36.2108C49.6691 37.1747 49.9698 37.6755 50.1369 38.1294C50.3706 37.9854 50.915 37.4985 51.2221 36.7026Z" fill="black"/>
<path d="M54.3686 36.2238C53.6853 36.622 52.6224 36.5027 52.1763 36.3933C52.6027 35.6067 52.8609 35.2468 53.7199 34.973C54.579 34.6992 55.0791 34.9129 55.5174 35.0075C55.4191 35.247 55.0518 35.8256 54.3686 36.2238Z" fill="black"/>
<path d="M52.9559 34.9056C53.1151 34.1222 52.6715 33.1344 52.4298 32.7385C51.827 33.3953 51.5708 33.7567 51.5829 34.6707C51.595 35.5847 51.9511 36.0003 52.1765 36.3935C52.37 36.2239 52.7967 35.689 52.9559 34.9056Z" fill="black"/>
<path d="M56.1048 33.603C55.5276 34.1197 54.4842 34.2147 54.0346 34.1975C54.2888 33.3588 54.4656 32.9625 55.236 32.5306C56.0064 32.0986 56.5284 32.2051 56.9676 32.2095C56.9205 32.4587 56.6821 33.0863 56.1048 33.603Z" fill="black"/>
<path d="M54.4895 32.6164C54.488 31.8334 53.8677 30.9729 53.5577 30.6405C53.1087 31.3896 52.9341 31.7869 53.1258 32.6616C53.3175 33.5362 53.7411 33.8648 54.0348 34.1977C54.1871 33.9969 54.4911 33.3995 54.4895 32.6164Z" fill="black"/>
<path d="M56.9793 31.0702C56.5026 31.6256 55.537 31.8437 55.1138 31.8833C55.248 31.0663 55.3647 30.6732 56.0327 30.1733C56.7008 29.6733 57.2029 29.7085 57.6148 29.6582C57.6016 29.8974 57.4559 30.5147 56.9793 31.0702Z" fill="black"/>
<path d="M55.3442 30.3461C55.2458 29.6128 54.5583 28.8837 54.2268 28.6107C53.899 29.3679 53.7846 29.7616 54.0724 30.5572C54.3603 31.3527 54.7977 31.608 55.114 31.8834C55.2318 31.6765 55.4426 31.0793 55.3442 30.3461Z" fill="black"/>
<path d="M57.7085 28.3045C57.3435 28.9389 56.4353 29.3328 56.0269 29.4504C56.0068 28.6227 56.0483 28.2148 56.6117 27.5993C57.1752 26.9838 57.675 26.925 58.0704 26.7989C58.1019 27.0365 58.0736 27.6701 57.7085 28.3045Z" fill="black"/>
<path d="M55.9673 27.8971C55.7343 27.195 54.9232 26.6064 54.5467 26.3998C54.3654 27.2048 54.3263 27.6129 54.757 28.341C55.1878 29.0691 55.6651 29.2387 56.0271 29.4505C56.1043 29.2253 56.2004 28.5993 55.9673 27.8971Z" fill="black"/>
<path d="M57.7285 25.4003C57.4629 26.0448 56.6546 26.5297 56.2836 26.6916C56.1615 25.9127 56.1499 25.5225 56.6051 24.8712C57.0604 24.2199 57.525 24.1021 57.8825 23.9339C57.9419 24.1542 57.9941 24.7559 57.7285 25.4003Z" fill="black"/>
<path d="M56.0339 25.2327C55.7264 24.5988 54.8873 24.1442 54.5062 23.9961C54.4353 24.7786 54.4492 25.1688 54.9466 25.8025C55.444 26.4363 55.9157 26.5368 56.2839 26.6917C56.3287 26.4695 56.3414 25.8665 56.0339 25.2327Z" fill="black"/>
<path d="M57.6781 23.136C57.4338 23.7288 56.6902 24.1749 56.349 24.3238C56.2366 23.6073 56.2259 23.2483 56.6447 22.6492C57.0635 22.0501 57.4909 21.9417 57.8198 21.7869C57.8744 21.9896 57.9224 22.5431 57.6781 23.136Z" fill="black"/>
<path d="M56.1192 22.9817C55.8364 22.3986 55.0644 21.9804 54.7139 21.8442C54.6486 22.564 54.6614 22.923 55.119 23.5059C55.5765 24.0889 56.0105 24.1814 56.3492 24.3239C56.3904 24.1195 56.4021 23.5648 56.1192 22.9817Z" fill="black"/>
<path d="M57.5038 20.4729C57.2859 21.0014 56.623 21.3991 56.3187 21.532C56.2186 20.8931 56.209 20.573 56.5824 20.0388C56.9558 19.5047 57.3368 19.408 57.6301 19.2701C57.6788 19.4508 57.7216 19.9443 57.5038 20.4729Z" fill="black"/>
<path d="M56.1139 20.3353C55.8617 19.8154 55.1735 19.4426 54.8609 19.3211C54.8027 19.9629 54.8141 20.283 55.2221 20.8027C55.63 21.3225 56.0169 21.405 56.3189 21.532C56.3556 21.3497 56.3661 20.8552 56.1139 20.3353Z" fill="black"/>
<path d="M56.6991 17.7931C56.8429 18.4147 56.4723 19.2107 56.269 19.531C55.7464 19.0187 55.5236 18.7353 55.5253 18.0063C55.5271 17.2773 55.8282 16.9392 56.0175 16.6214C56.1848 16.753 56.5553 17.1715 56.6991 17.7931Z" fill="black"/>
<path d="M37.364 41.3893C38.3607 41.3963 39.448 40.6147 39.8671 40.223C38.908 39.6415 38.4 39.4142 37.2892 39.6488C36.1783 39.8834 35.7654 40.4201 35.3455 40.791C35.603 40.9875 36.3673 41.3823 37.364 41.3893Z" fill="black"/>
<path d="M38.0823 39.1066C37.4172 38.3643 37.2831 37.0319 37.2992 36.4585C38.37 36.7923 38.8767 37.0225 39.4363 38.0104C39.996 38.9983 39.867 39.663 39.8671 40.2233C39.5493 40.1604 38.7474 39.849 38.0823 39.1066Z" fill="black"/>
<path d="M34.4089 40.0111C35.319 40.2017 36.4604 39.674 36.9174 39.3864C36.1498 38.6672 35.7281 38.3615 34.6682 38.375C33.6082 38.3885 33.1297 38.8125 32.6758 39.0807C32.8743 39.3115 33.4988 39.8206 34.4089 40.0111Z" fill="black"/>
<path d="M35.4955 38.0162C35.0271 37.2014 35.1552 35.9348 35.2779 35.4033C36.1942 35.9122 36.6142 36.2203 36.9399 37.2445C37.2657 38.2686 37.0227 38.8644 36.9173 39.3866C36.6385 39.2693 35.9639 38.831 35.4955 38.0162Z" fill="black"/>
<path d="M32.1591 38.3517C32.9491 38.649 34.0462 38.334 34.4961 38.1394C33.9073 37.3877 33.5714 37.055 32.6187 36.92C31.666 36.785 31.1778 37.0989 30.7335 37.2765C30.8795 37.5111 31.3691 38.0545 32.1591 38.3517Z" fill="black"/>
<path d="M33.4107 36.7129C33.1036 35.917 33.3943 34.7985 33.5781 34.3387C34.3295 34.9224 34.6635 35.2571 34.8136 36.221C34.9637 37.185 34.663 37.6857 34.4959 38.1396C34.2622 37.9957 33.7178 37.5088 33.4107 36.7129Z" fill="black"/>
<path d="M30.2643 36.2336C30.9475 36.6318 32.0104 36.5125 32.4565 36.403C32.0301 35.6165 31.7719 35.2566 30.9129 34.9828C30.0538 34.709 29.5537 34.9227 29.1154 35.0172C29.2137 35.2568 29.581 35.8354 30.2643 36.2336Z" fill="black"/>
<path d="M31.6769 34.9154C31.5177 34.132 31.9613 33.1442 32.203 32.7482C32.8059 33.405 33.062 33.7665 33.0499 34.6805C33.0378 35.5945 32.6817 36.01 32.4563 36.4032C32.2629 36.2337 31.8361 35.6987 31.6769 34.9154Z" fill="black"/>
<path d="M28.528 33.6133C29.1052 34.13 30.1486 34.2249 30.5982 34.2078C30.3441 33.3691 30.1672 32.9728 29.3968 32.5408C28.6264 32.1089 28.1045 32.2154 27.6652 32.2197C27.7123 32.4689 27.9508 33.0965 28.528 33.6133Z" fill="black"/>
<path d="M30.1433 32.6267C30.1448 31.8436 30.7651 30.9831 31.0751 30.6508C31.5241 31.3998 31.6987 31.7971 31.507 32.6718C31.3153 33.5465 30.8917 33.8751 30.598 34.208C30.4458 34.0071 30.1417 33.4097 30.1433 32.6267Z" fill="black"/>
<path d="M27.6535 31.0805C28.1302 31.6359 29.0958 31.854 29.519 31.8936C29.3848 31.0765 29.2682 30.6835 28.6001 30.1835C27.932 29.6836 27.4299 29.7187 27.018 29.6684C27.0312 29.9077 27.1769 30.525 27.6535 31.0805Z" fill="black"/>
<path d="M29.2886 30.3563C29.387 29.6231 30.0745 28.8939 30.406 28.621C30.7339 29.3781 30.8482 29.7719 30.5604 30.5674C30.2725 31.3629 29.8351 31.6183 29.5188 31.8937C29.4011 31.6868 29.1902 31.0896 29.2886 30.3563Z" fill="black"/>
<path d="M26.9243 28.3148C27.2893 28.9492 28.1975 29.343 28.6059 29.4606C28.626 28.6329 28.5845 28.225 28.0211 27.6095C27.4576 26.9941 26.9578 26.9352 26.5624 26.8092C26.5309 27.0467 26.5592 27.6804 26.9243 28.3148Z" fill="black"/>
<path d="M28.6655 27.9074C28.8985 27.2052 29.7096 26.6166 30.0861 26.4101C30.2674 27.215 30.3065 27.6232 29.8758 28.3513C29.445 29.0794 28.9678 29.2489 28.6057 29.4607C28.5285 29.2355 28.4324 28.6095 28.6655 27.9074Z" fill="black"/>
<path d="M26.9043 25.4101C27.1699 26.0545 27.9782 26.5395 28.3492 26.7014C28.4713 25.9225 28.4829 25.5322 28.0277 24.881C27.5724 24.2297 27.1078 24.1119 26.7503 23.9436C26.691 24.164 26.6387 24.7657 26.9043 25.4101Z" fill="black"/>
<path d="M28.5989 25.2424C28.9064 24.6086 29.7455 24.154 30.1266 24.0059C30.1975 24.7884 30.1836 25.1786 29.6862 25.8123C29.1889 26.446 28.7171 26.5466 28.349 26.7015C28.3042 26.4792 28.2914 25.8763 28.5989 25.2424Z" fill="black"/>
<path d="M26.9547 23.1457C27.199 23.7385 27.9426 24.1846 28.2839 24.3336C28.3962 23.617 28.4069 23.258 27.9881 22.6589C27.5693 22.0598 27.1419 21.9514 26.813 21.7967C26.7584 21.9994 26.7104 22.5529 26.9547 23.1457Z" fill="black"/>
<path d="M28.5136 22.9915C28.7965 22.4084 29.5684 21.9902 29.919 21.854C29.9842 22.5738 29.9714 22.9327 29.5138 23.5157C29.0563 24.0987 28.6223 24.1912 28.2837 24.3337C28.2424 24.1292 28.2307 23.5746 28.5136 22.9915Z" fill="black"/>
<path d="M27.129 20.4831C27.3469 21.0116 28.0099 21.4094 28.3141 21.5422C28.4142 20.9033 28.4238 20.5833 28.0504 20.0491C27.677 19.5149 27.296 19.4183 27.0027 19.2803C26.954 19.461 26.9112 19.9546 27.129 20.4831Z" fill="black"/>
<path d="M28.5189 20.3456C28.7711 19.8257 29.4593 19.4528 29.7719 19.3314C29.8301 19.9732 29.8187 20.2932 29.4107 20.813C29.0028 21.3327 28.6159 21.4152 28.3139 21.5423C28.2772 21.36 28.2667 20.8655 28.5189 20.3456Z" fill="black"/>
<path d="M27.9337 17.8033C27.7899 18.4249 28.1605 19.2209 28.3638 19.5412C28.8864 19.0289 29.1092 18.7455 29.1075 18.0165C29.1057 17.2875 28.8046 16.9495 28.6153 16.6317C28.448 16.7632 28.0775 17.1817 27.9337 17.8033Z" fill="black"/>
<path d="M11.4398 47.0139C11.4967 46.5992 11.637 46.2426 11.8607 45.9442C12.0849 45.6418 12.3689 45.4227 12.7125 45.287C13.0607 45.1478 13.4381 45.1061 13.8449 45.1619C14.3433 45.2302 14.752 45.4203 15.0708 45.7321C15.3896 46.0439 15.5777 46.4354 15.6351 46.9064L14.5105 46.7522C14.4508 46.5653 14.3495 46.4153 14.2065 46.3023C14.0676 46.1898 13.9004 46.1201 13.705 46.0934C13.39 46.0502 13.1197 46.1249 12.8943 46.3174C12.6688 46.51 12.5309 46.7897 12.4806 47.1565C12.4303 47.5234 12.4879 47.8299 12.6532 48.076C12.8186 48.3221 13.0587 48.4668 13.3738 48.5099C13.5692 48.5367 13.7489 48.5146 13.913 48.4437C14.0811 48.3733 14.2191 48.2561 14.3269 48.0921L15.4514 48.2462C15.2695 48.6845 14.983 49.0108 14.592 49.2254C14.2016 49.4359 13.7571 49.5071 13.2587 49.4387C12.8519 49.383 12.4993 49.2432 12.2009 49.0195C11.907 48.7924 11.6925 48.505 11.5573 48.1574C11.4222 47.8098 11.383 47.4286 11.4398 47.0139Z" fill="black"/>
<path d="M18.1007 49.9794L17.3625 48.3085L17.1159 48.2869L16.976 49.8807L15.9475 49.7904L16.318 45.5683L18.0442 45.7198C18.377 45.749 18.6546 45.8319 18.8769 45.9686C19.1033 46.1056 19.2656 46.2815 19.364 46.4962C19.4626 46.7069 19.5011 46.9365 19.4793 47.1851C19.4546 47.4658 19.3525 47.7094 19.1727 47.9158C18.997 48.1226 18.7507 48.2586 18.4339 48.3237L19.2615 50.0812L18.1007 49.9794ZM17.1797 47.5591L17.8173 47.6151C18.0057 47.6316 18.1501 47.5978 18.2504 47.5137C18.3547 47.4299 18.4143 47.3038 18.4291 47.1354C18.4431 46.975 18.4061 46.8445 18.318 46.7438C18.2338 46.6435 18.0975 46.5851 17.9091 46.5685L17.2716 46.5126L17.1797 47.5591Z" fill="black"/>
<path d="M23.7533 46.2506L22.0559 48.9568L21.9398 50.3527L20.9109 50.2671L21.0271 48.8712L19.8003 45.9217L20.9675 46.0188L21.6386 47.8558L22.5981 46.1545L23.7533 46.2506Z" fill="black"/>
<path d="M27.4093 47.8911C27.3906 48.1359 27.3173 48.3564 27.1894 48.5525C27.0617 48.7446 26.8768 48.894 26.6345 49.0007C26.3923 49.1074 26.0986 49.1476 25.7534 49.1214L25.1153 49.0728L24.9999 50.5899L23.9704 50.5115L24.292 46.2854L25.9596 46.4123C26.2967 46.438 26.5773 46.5178 26.8012 46.6519C27.0251 46.7861 27.1875 46.9599 27.2883 47.1734C27.3891 47.387 27.4294 47.6262 27.4093 47.8911ZM25.7375 48.2967C25.9341 48.3116 26.0841 48.2766 26.1875 48.1917C26.2908 48.1067 26.3489 47.9799 26.3618 47.8113C26.3746 47.6428 26.3363 47.5087 26.247 47.409C26.1578 47.3094 26.0148 47.2521 25.8181 47.2371L25.2582 47.1945L25.1776 48.2541L25.7375 48.2967Z" fill="black"/>
<path d="M31.1751 46.8751L31.1271 47.7008L30.006 47.6356L29.808 51.0411L28.7773 50.9812L28.9753 47.5757L27.8542 47.5105L27.9022 46.6848L31.1751 46.8751Z" fill="black"/>
<path d="M33.504 51.2084C33.1056 51.2002 32.7413 51.1002 32.4111 50.9083C32.0849 50.7165 31.8265 50.4535 31.6361 50.1195C31.4497 49.7816 31.3608 49.4054 31.3692 48.9909C31.3777 48.5764 31.4818 48.2061 31.6817 47.8801C31.8857 47.5541 32.1545 47.3019 32.4883 47.1235C32.826 46.9452 33.1941 46.8601 33.5925 46.8683C33.9909 46.8764 34.3532 46.9764 34.6794 47.1682C35.0097 47.3601 35.266 47.623 35.4484 47.9569C35.6348 48.2908 35.7238 48.665 35.7154 49.0795C35.7069 49.494 35.6027 49.8663 35.4027 50.1963C35.2028 50.5224 34.936 50.7746 34.6022 50.953C34.2685 51.1314 33.9024 51.2165 33.504 51.2084ZM33.5232 50.2667C33.8612 50.2736 34.1332 50.1664 34.339 49.9452C34.5488 49.724 34.6575 49.4283 34.665 49.0581C34.6727 48.6838 34.5761 48.3839 34.3754 48.1584C34.1788 47.929 33.9115 47.8108 33.5734 47.8039C33.2314 47.7969 32.9555 47.902 32.7457 48.1191C32.54 48.3364 32.4333 48.6341 32.4256 49.0124C32.4179 49.3867 32.5124 49.6885 32.709 49.918C32.9098 50.1435 33.1812 50.2597 33.5232 50.2667Z" fill="black"/>
<path d="M39.0127 47.1059V49.6416C39.0127 49.8952 39.075 50.0904 39.1998 50.2273C39.3246 50.3641 39.5077 50.4326 39.7492 50.4326C39.9907 50.4326 40.1759 50.3641 40.3047 50.2273C40.4335 50.0904 40.4979 49.8952 40.4979 49.6416V47.1059H41.5303V49.6356C41.5303 50.014 41.4498 50.334 41.2888 50.5956C41.1278 50.8572 40.9105 51.0544 40.6368 51.1873C40.3671 51.3201 40.0652 51.3865 39.7311 51.3865C39.3971 51.3865 39.0972 51.3221 38.8315 51.1933C38.5699 51.0605 38.3626 50.8632 38.2097 50.6016C38.0567 50.336 37.9802 50.014 37.9802 49.6356V47.1059H39.0127Z" fill="black"/>
<path d="M46.0311 51.3022H44.9987L43.272 48.688V51.3022H42.2396V47.0639H43.272L44.9987 49.6902V47.0639H46.0311V51.3022Z" fill="black"/>
<path d="M47.7508 47.0368L47.9102 51.2722L46.8785 51.311L46.7191 47.0756L47.7508 47.0368Z" fill="black"/>
<path d="M52.4989 46.9331L51.1233 51.2146L49.8318 51.2533L48.2021 47.0619L49.3005 47.029L50.4464 50.196L51.4066 46.9658L52.4989 46.9331Z" fill="black"/>
<path d="M54.1256 47.7139L54.1513 48.5708L55.5333 48.5294L55.5572 49.326L54.1752 49.3674L54.2031 50.2968L55.7661 50.2499L55.7909 51.0767L53.1959 51.1545L53.0689 46.918L55.6638 46.8402L55.6886 47.667L54.1256 47.7139Z" fill="black"/>
<path d="M58.8915 50.8263L57.8814 49.3042L57.6347 49.3246L57.7663 50.9191L56.7374 51.004L56.3888 46.78L58.1157 46.6375C58.4487 46.6101 58.7363 46.6449 58.9785 46.742C59.2248 46.8388 59.4146 46.9847 59.5478 47.1797C59.6806 47.3707 59.7573 47.5905 59.7779 47.8392C59.801 48.12 59.7415 48.3773 59.5993 48.6112C59.461 48.8447 59.2413 49.0204 58.94 49.1381L60.0528 50.7305L58.8915 50.8263ZM57.5746 48.5965L58.2125 48.5439C58.401 48.5283 58.5376 48.4706 58.6222 48.3708C58.7109 48.2705 58.7483 48.1362 58.7344 47.9677C58.7211 47.8073 58.6626 47.6849 58.5587 47.6006C58.4588 47.5159 58.3146 47.4814 58.1261 47.4969L57.4882 47.5496L57.5746 48.5965Z" fill="black"/>
<path d="M62.1844 50.5868C61.8754 50.6108 61.5946 50.5822 61.342 50.5009C61.0894 50.4196 60.8813 50.2864 60.7175 50.1013C60.5578 49.9159 60.4631 49.685 60.4336 49.4088L61.5291 49.3236C61.5573 49.4789 61.6208 49.5951 61.7197 49.6722C61.8182 49.7453 61.9417 49.776 62.0902 49.7645C62.2427 49.7526 62.3604 49.7092 62.4434 49.6341C62.5261 49.555 62.5626 49.4533 62.5529 49.3289C62.5448 49.2245 62.502 49.141 62.4245 49.0784C62.3509 49.0155 62.2603 48.966 62.1525 48.93C62.0488 48.8937 61.9004 48.8547 61.7074 48.8132C61.428 48.7501 61.1987 48.6832 61.0196 48.6123C60.8405 48.5414 60.6824 48.4286 60.5452 48.2737C60.408 48.1189 60.3291 47.909 60.3086 47.6441C60.278 47.2509 60.3966 46.9328 60.6644 46.69C60.9318 46.4431 61.2943 46.3019 61.7518 46.2663C62.2173 46.2302 62.6012 46.3134 62.9036 46.516C63.2057 46.7145 63.3822 47.0117 63.4331 47.4074L62.3195 47.4939C62.3009 47.3581 62.2424 47.2557 62.1442 47.1866C62.0457 47.1135 61.9242 47.0826 61.7797 47.0938C61.6553 47.1035 61.5577 47.1454 61.4867 47.2195C61.4154 47.2897 61.3847 47.3869 61.3943 47.5113C61.4049 47.6478 61.4774 47.7491 61.6117 47.8154C61.7461 47.8816 61.9531 47.9483 62.2329 48.0154C62.5129 48.0865 62.7405 48.1576 62.9156 48.2288C63.0947 48.2997 63.2527 48.4105 63.3895 48.5614C63.5264 48.7122 63.6047 48.9141 63.6243 49.1669C63.643 49.4076 63.5978 49.6312 63.4887 49.8375C63.3836 50.0435 63.2192 50.2137 62.9955 50.3482C62.7718 50.4826 62.5014 50.5622 62.1844 50.5868Z" fill="black"/>
<path d="M64.996 45.9803L65.4439 50.1949L64.4173 50.304L63.9693 46.0894L64.996 45.9803Z" fill="black"/>
<path d="M68.8237 45.5669L68.9201 46.3884L67.8048 46.5193L68.2023 49.9073L67.177 50.0276L66.7794 46.6397L65.664 46.7705L65.5676 45.949L68.8237 45.5669Z" fill="black"/>
<path d="M73.1569 45.0256L72.1136 48.0449L72.3153 49.431L71.2937 49.5797L71.092 48.1936L69.2316 45.5967L70.3906 45.4281L71.4588 47.0664L72.0098 45.1925L73.1569 45.0256Z" fill="black"/>
</g>
<defs>
<clipPath id="clip0_711_127">
<rect width="82.9889" height="56.3139" fill="white" transform="translate(0.819336 0.00634766)"/>
</clipPath>
<clipPath id="clip1_711_127">
<rect width="5.11425" height="5.11425" fill="white" transform="translate(39.752 5.12646)"/>
</clipPath>
<clipPath id="clip2_711_127">
<rect width="3.5099" height="3.5099" fill="white" transform="translate(40.5596 39.0767)"/>
</clipPath>
<clipPath id="clip3_711_127">
<rect width="3.61814" height="3.61814" fill="white" transform="translate(47.8838 6.75293) rotate(20.6407)"/>
</clipPath>
<clipPath id="clip4_711_127">
<rect width="3.61814" height="3.61814" fill="white" transform="matrix(-0.935809 0.352507 0.352507 0.935809 36.7266 6.75293)"/>
</clipPath>
<clipPath id="clip5_711_127">
<rect width="2.74634" height="2.74634" fill="white" transform="translate(52.6465 11.1123) rotate(-8.49426)"/>
</clipPath>
<clipPath id="clip6_711_127">
<rect width="2.74634" height="2.74634" fill="white" transform="matrix(-0.989031 -0.14771 -0.14771 0.989031 31.9551 11.1123)"/>
</clipPath>
</defs>
</svg>
